<svg width="460" height="360" viewBox="0 0 460 360" fill="none" xmlns="http://www.w3.org/2000/svg">
  <path fill-rule="evenodd" clip-rule="evenodd" d="M393.2 360H66.864C29.988 360 0 330.043 0 293.247V120.405c0-36.837 29.988-66.794 66.864-66.794h62.494l13.536-29.06C149.962 9.395 164.756 0 181.487 0h97.051c16.73 0 31.505 9.394 38.573 24.552l13.536 29.059h62.53c36.856 0 66.823 29.957 66.823 66.794v172.842C460 330.064 430.012 360 393.177 360zM260.029 184.069h-.359c-9.603 0-17.37-7.778-17.37-17.331s7.786-17.352 17.37-17.352h.359c9.584 0 17.35 7.778 17.35 17.352 0 9.593-7.786 17.331-17.35 17.331M230.021 313.65c-58.977 0-106.955-47.927-106.955-106.845S171.042 99.941 230.021 99.941s106.956 47.927 106.956 106.864S289 313.65 230.021 313.65M72.235 0h22.76c9.085 0 16.492 7.4 16.492 16.474v18.23H55.725v-18.23C55.725 7.4 63.132 0 72.216 0z" fill="#fff"/>
</svg>
